<svg width="19" height="19" viewBox="0 0 19 19" fill="none" xmlns="http://www.w3.org/2000/svg">
<path d="M9.70728 0.485352C7.93961 0.485352 6.21163 1.00953 4.74187 1.99159C3.27211 2.97366 2.12656 4.3695 1.45011 6.00262C0.773648 7.63573 0.596656 9.43277 0.941511 11.1665C1.28637 12.9002 2.13758 14.4927 3.38751 15.7426C4.63744 16.9925 6.22995 17.8438 7.96366 18.1886C9.69736 18.5335 11.4944 18.3565 13.1275 17.68C14.7606 17.0036 16.1565 15.858 17.1385 14.3883C18.1206 12.9185 18.6448 11.1905 18.6448 9.42285C18.6423 7.05325 17.6998 4.78141 16.0243 3.10585C14.3487 1.43028 12.0769 0.487854 9.70728 0.485352ZM10.3948 16.9536V11.4854H12.4573C12.6396 11.4854 12.8145 11.4129 12.9434 11.284C13.0723 11.1551 13.1448 10.9802 13.1448 10.7979C13.1448 10.6155 13.0723 10.4406 12.9434 10.3117C12.8145 10.1828 12.6396 10.1104 12.4573 10.1104H10.3948V8.04785C10.3948 7.68318 10.5396 7.33344 10.7975 7.07558C11.0554 6.81772 11.4051 6.67285 11.7698 6.67285H13.1448C13.3271 6.67285 13.502 6.60042 13.6309 6.47149C13.7598 6.34256 13.8323 6.16769 13.8323 5.98535C13.8323 5.80302 13.7598 5.62815 13.6309 5.49922C13.502 5.37028 13.3271 5.29785 13.1448 5.29785H11.7698C11.0404 5.29785 10.341 5.58758 9.82524 6.10331C9.30951 6.61903 9.01978 7.31851 9.01978 8.04785V10.1104H6.95728C6.77494 10.1104 6.60007 10.1828 6.47114 10.3117C6.34221 10.4406 6.26978 10.6155 6.26978 10.7979C6.26978 10.9802 6.34221 11.1551 6.47114 11.284C6.60007 11.4129 6.77494 11.4854 6.95728 11.4854H9.01978V16.9536C7.08171 16.7766 5.28645 15.8594 4.00742 14.3926C2.72839 12.9258 2.06406 11.0224 2.15261 9.07826C2.24116 7.13415 3.07578 5.29901 4.48286 3.95457C5.88994 2.61012 7.76115 1.85987 9.70728 1.85987C11.6534 1.85987 13.5246 2.61012 14.9317 3.95457C16.3388 5.29901 17.1734 7.13415 17.2619 9.07826C17.3505 11.0224 16.6862 12.9258 15.4071 14.3926C14.1281 15.8594 12.3328 16.7766 10.3948 16.9536Z" fill="black"/>
</svg>
