<svg width="19" height="19" viewBox="0 0 19 19" fill="none" xmlns="http://www.w3.org/2000/svg">
<path d="M9.70728 5.29785C8.89143 5.29785 8.0939 5.53978 7.41555 5.99304C6.7372 6.4463 6.20848 7.09054 5.89627 7.84428C5.58406 8.59803 5.50237 9.42743 5.66154 10.2276C5.8207 11.0278 6.21357 11.7628 6.79046 12.3397C7.36735 12.9166 8.10236 13.3094 8.90253 13.4686C9.7027 13.6278 10.5321 13.5461 11.2858 13.2339C12.0396 12.9216 12.6838 12.3929 13.1371 11.7146C13.5903 11.0362 13.8323 10.2387 13.8323 9.42285C13.8311 8.32918 13.3962 7.28063 12.6228 6.50729C11.8495 5.73395 10.8009 5.29899 9.70728 5.29785ZM9.70728 12.1729C9.16338 12.1729 8.63169 12.0116 8.17946 11.7094C7.72722 11.4072 7.37475 10.9777 7.16661 10.4752C6.95847 9.97273 6.90401 9.4198 7.01012 8.88635C7.11622 8.35291 7.37814 7.8629 7.76273 7.47831C8.14733 7.09371 8.63733 6.8318 9.17078 6.72569C9.70422 6.61958 10.2572 6.67404 10.7597 6.88218C11.2622 7.09032 11.6916 7.4428 11.9938 7.89503C12.296 8.34727 12.4573 8.87895 12.4573 9.42285C12.4573 10.1522 12.1675 10.8517 11.6518 11.3674C11.1361 11.8831 10.4366 12.1729 9.70728 12.1729ZM13.8323 0.485352H5.58228C4.30634 0.486716 3.08305 0.994185 2.18083 1.89641C1.27861 2.79863 0.77114 4.02192 0.769775 5.29785V13.5479C0.77114 14.8238 1.27861 16.0471 2.18083 16.9493C3.08305 17.8515 4.30634 18.359 5.58228 18.3604H13.8323C15.1082 18.359 16.3315 17.8515 17.2337 16.9493C18.1359 16.0471 18.6434 14.8238 18.6448 13.5479V5.29785C18.6434 4.02192 18.1359 2.79863 17.2337 1.89641C16.3315 0.994185 15.1082 0.486716 13.8323 0.485352ZM17.2698 13.5479C17.2698 14.4595 16.9076 15.3339 16.263 15.9785C15.6183 16.6232 14.744 16.9854 13.8323 16.9854H5.58228C4.67059 16.9854 3.79625 16.6232 3.1516 15.9785C2.50694 15.3339 2.14478 14.4595 2.14478 13.5479V5.29785C2.14478 4.38617 2.50694 3.51183 3.1516 2.86717C3.79625 2.22252 4.67059 1.86035 5.58228 1.86035H13.8323C14.744 1.86035 15.6183 2.22252 16.263 2.86717C16.9076 3.51183 17.2698 4.38617 17.2698 5.29785V13.5479ZM15.2073 4.9541C15.2073 5.15806 15.1468 5.35744 15.0335 5.52703C14.9202 5.69662 14.7591 5.8288 14.5707 5.90685C14.3822 5.98491 14.1749 6.00533 13.9748 5.96554C13.7748 5.92575 13.591 5.82753 13.4468 5.68331C13.3026 5.53908 13.2044 5.35533 13.1646 5.15529C13.1248 4.95525 13.1452 4.7479 13.2233 4.55946C13.3013 4.37102 13.4335 4.20996 13.6031 4.09665C13.7727 3.98333 13.9721 3.92285 14.176 3.92285C14.4495 3.92285 14.7118 4.0315 14.9052 4.2249C15.0986 4.41829 15.2073 4.6806 15.2073 4.9541Z" fill="black"/>
</svg>
