<svg width="22" height="17" viewBox="0 0 22 17" fill="none" xmlns="http://www.w3.org/2000/svg">
<path fill-rule="evenodd" clip-rule="evenodd" d="M3.63584 1.06592C2.17623 1.06592 0.992981 2.24917 0.992981 3.70878V13.1373C0.992981 14.597 2.17623 15.7802 3.63584 15.7802H17.7787C19.2383 15.7802 20.4216 14.597 20.4216 13.1373V3.70878C20.4216 2.24917 19.2383 1.06592 17.7787 1.06592H3.63584ZM-0.00701904 3.70878C-0.00701904 1.69688 1.62394 0.065918 3.63584 0.065918H17.7787C19.7906 0.065918 21.4216 1.69688 21.4216 3.70878V13.1373C21.4216 15.1492 19.7906 16.7802 17.7787 16.7802H3.63584C1.62394 16.7802 -0.00701904 15.1492 -0.00701904 13.1373V3.70878Z" fill="black"/>
<path fill-rule="evenodd" clip-rule="evenodd" d="M8.66715 5.33793C8.64663 5.33738 8.62635 5.34244 8.60849 5.35256C8.59063 5.36268 8.57587 5.37748 8.56579 5.39537C8.55572 5.41325 8.55071 5.43355 8.55132 5.45407L8.55154 5.46878V12.0733C8.55133 12.0959 8.5571 12.1183 8.5683 12.138C8.5795 12.1577 8.59572 12.1741 8.6153 12.1855C8.63488 12.1969 8.65713 12.203 8.6798 12.203C8.70224 12.2031 8.72431 12.1972 8.74381 12.1861C8.74399 12.186 8.74362 12.1862 8.74381 12.1861L14.3985 8.88753C14.3986 8.88746 14.3984 8.8876 14.3985 8.88753C14.4177 8.8762 14.4339 8.85987 14.445 8.84053C14.4562 8.82108 14.462 8.79905 14.462 8.77664C14.462 8.75422 14.4562 8.73219 14.445 8.71274C14.4339 8.6934 14.418 8.67728 14.3989 8.66595C14.3987 8.66588 14.399 8.66602 14.3989 8.66595L8.74246 5.36638C8.73655 5.36294 8.73071 5.35937 8.72494 5.35568C8.70765 5.34462 8.68767 5.33848 8.66715 5.33793ZM8.11547 4.48254C8.29159 4.38274 8.49158 4.33287 8.69393 4.33829C8.89236 4.34361 9.08567 4.40189 9.25388 4.50701L14.9046 7.80324C15.0743 7.90282 15.215 8.04503 15.3128 8.21578C15.4106 8.38653 15.462 8.57987 15.462 8.77664C15.462 8.9734 15.4106 9.16675 15.3128 9.33749C15.215 9.50824 15.0743 9.65045 14.9046 9.75003L14.9035 9.75067L9.24633 13.0507L9.24441 13.0518C9.0721 13.1513 8.87655 13.2034 8.67758 13.203C8.47861 13.2026 8.28329 13.1495 8.11143 13.0493C7.93956 12.949 7.79725 12.8051 7.69893 12.6321C7.60103 12.4599 7.55021 12.2649 7.55153 12.0669C7.55154 12.066 7.55155 12.0651 7.55156 12.0643L8.05153 12.0688H7.55153V12.0669V5.47505C7.5516 5.47786 7.55167 5.48067 7.55175 5.48349L8.05153 5.46878H7.55153V5.47505C7.54718 5.27559 7.59652 5.07857 7.69447 4.90465C7.7938 4.72828 7.93936 4.58233 8.11547 4.48254Z" fill="black"/>
</svg>
